<svg xmlns="http://www.w3.org/2000/svg" width="50" height="36.3" viewBox="0 0 50 36.3"><g fill="#474A56"><path d="M49.3 29.7c-5.4-2.1-11.4-3.7-11.9-5.3v-2.8c5.4 0 7.5-1.8 7.5-1.8-2.2-1.3-3-10.2-3-10.2 0-2.7-1.2-5.2-3-6.8-.7-.8-1.6-1.4-2.8-1.7-.9-.3-1.9-.5-2.9-.5-1.1 0-2.1.2-3.1.6-1 .3-1.8.8-2.4 1.4-.1 0-.1.1-.2.2.5 1.3.8 2.7.8 4.4v3.3c.4.8.7 1.7.7 2.6 0 1.5-.6 2.9-1.6 3.9-.5 1.5-1.2 2.9-2.1 4.1.1.1.2.2.3.2.9.2 2 .3 3.4.3v1.8c2 1.1 4.5 2.3 7.2 3.3 1.5.6 2.5 2 2.5 3.6v4.7c0 .5-.1.9-.2 1.3h10.2c.7 0 1.2-.5 1.2-1.2v-4.2c.1-.5-.2-1-.6-1.2zM35.5 29.2c-.6-.2-1.2-.5-1.9-.8l-.2-.1-1.8-.8-.2-.1c-.6-.3-1.2-.6-1.8-.8 0 0-.1 0-.1-.1-.6-.3-1.2-.6-1.7-.9-2.8-1.5-5-3.1-5.3-4v-1.1s0-.1.1-.1c.6-.6 1.1-1.3 1.5-2.2l.1-.2c.2-.4.4-.7.5-1.1l.5-1.4c.8-.5 1.2-1.4 1.2-2.4 0-.7-.3-1.4-.7-1.9v-5.1c-.2-3.6-2.6-6.1-7.5-6.1-5.3 0-7.8 2.9-7.8 7.1v4.1c-.4.5-.7 1.2-.7 1.9 0 1 .5 1.9 1.2 2.4.6 2 1.5 3.8 2.7 5v1.1c-.5 1.7-7 5.3-12.9 7.5-.4.3-.7.8-.7 1.3v4.6c0 .7.6 1.3 1.3 1.3h33.7c.7 0 1.3-.6 1.3-1.3v-4.6c0-.5-.3-1-.8-1.2z"/></g></svg>