<svg xmlns="http://www.w3.org/2000/svg" width="49.1" height="38.6" viewBox="0 0 49.1 38.6"><g fill="#474A56"><path d="M47.7 2.3c-1-.2-1.9.4-2.1 1.3l-.5 2.2h-32.5l-.9-4.4c-.2-.8-1-1.4-1.8-1.4h-8.1c-1 0-1.8.8-1.8 1.8s.8 1.8 1.8 1.8h6.7l4.5 21.4c.2.8.9 1.4 1.7 1.4h27.8c.8 0 1.5-.6 1.7-1.4l4.8-20.6c.3-.9-.3-1.8-1.3-2.1zm-23.2 12.4v-5.3h8.6v5.3h-8.6zm8.6 2.1v6h-8.6v-6h8.6zm2.1-7.4h9.1l-1.3 5.3h-7.8v-5.3zm-12.8 0v5.3h-7.9l-1.1-5.3h9zm-7.5 7.4h7.5v6h-6.2l-1.3-6zm26.2 6.1h-5.9v-6h7.3l-1.4 6z"/><circle cx="20.1" cy="34.6" r="4"/><circle cx="37.1" cy="34.6" r="4"/></g></svg>