<svg xmlns="http://www.w3.org/2000/svg" width="46.9" height="49" viewBox="0 0 46.9 49"><path fill="#BD1D1D" d="M26 9.9c-1.1-.2-2.1.5-2.3 1.5-.2 1.1.5 2.1 1.5 2.3 5.2 1.1 8.5 6.2 7.4 11.3-.2 1.1.5 2.1 1.5 2.3 1.1.2 2.1-.5 2.3-1.5 1.6-7.1-3.1-14.3-10.4-15.9zM28.1 0c-1.1-.2-2.1.5-2.4 1.6-.2 1.1.5 2.1 1.5 2.3 10.6 2.2 17.5 12.7 15.2 23.3-.2 1.1.5 2.1 1.5 2.3 1.1.2 2.1-.5 2.3-1.5 2.9-12.7-5.4-25.3-18.1-28z"/><path fill="#474A56" d="M27.8 31.3c-.3-.5-.9-.6-1.4-.3l-.3.2c-.8.5-3.1 2-3.3 2.1l-.2.1c-1.6.4-5.8-3.7-8.2-8.9-1.5-3.1-1.5-5.1-.9-5.5l3.6-2.4c.2-.1.4-.4.4-.6.1-.3 0-.5-.1-.8l-7.8-12c-.2-.3-.4-.4-.6-.5-.3-.1-.5 0-.8.1l-.6.4c-1 .7-3.1 2-3.1 2l-.1.1c-4.6 3.1-8.3 9 3.7 27.4 8 12.3 14.7 17.6 20.5 16 1.3-.3 2.2-1 3-1.4l.2-.1c.2-.1 3.7-2.4 3.8-2.4.4-.3.6-.9.3-1.4l-8.1-12.1z"/></svg>