<svg xmlns="http://www.w3.org/2000/svg" width="49.4" height="49.4" viewBox="0 0 49.4 49.4"><path fill="#fff" d="M42.1 38.2l-10.5-10.5c-.6-.6-1.5-.6-2 0l-.2.2-2.3-2.3c1.7-2 2.6-4.6 2.6-7.2 0-3-1.2-5.9-3.3-8-2.1-2.1-5-3.3-8-3.3s-5.9 1.2-8 3.3c-2.1 2.1-3.3 5-3.3 8s1.2 5.9 3.3 8c2.1 2.1 5 3.3 8 3.3 2.7 0 5.2-.9 7.2-2.6l2.3 2.3-.2.2c-.6.6-.6 1.5 0 2l10.5 10.5c.3.3.6.4 1 .4s.7-.1 1-.4l1.9-1.9c.5-.6.5-1.5 0-2zm-23.8-12.8c-1.9 0-3.7-.7-5-2.1-1.3-1.3-2.1-3.1-2.1-5s.7-3.7 2.1-5c1.3-1.3 3.1-2.1 5-2.1s3.7.7 5 2.1c1.3 1.3 2.1 3.1 2.1 5s-.7 3.7-2.1 5c-1.3 1.3-3.1 2.1-5 2.1z"/></svg>