<svg xmlns="http://www.w3.org/2000/svg" width="49.5" height="39.9" viewBox="0 0 49.5 39.9"><g fill="#474A56"><path d="M30 12.4h6.3v3.9c0 .6.3 1.1.8 1.3.2.1.4.2.7.2.3 0 .6-.1.9-.3l10.2-7.4c.4-.3.6-.7.6-1.2s-.2-.9-.6-1.2l-10.2-7.4c-.5-.3-1.1-.4-1.6-.1-.5.3-.8.8-.8 1.3v3.9h-6.3c-.3 0-.6 0-.9.1h-.3l-.8.1c-.1 0-.2 0-.3.1l-.9.2c-.1 0-.1 0-.2.1-2.6.8-5.6 2.7-7.5 6.3v.1c-.8 1.4-1.3 3.2-1.7 5.2l-.2 1.2c-.1.5-.1 1.1-.1 1.6-.2 6.6-3.5 7.1-4.1 7.2h-9.5c-1.9-.1-3.5 1.4-3.5 3.4s1.6 3.5 3.5 3.5h10.700000000000001c.2 0 .4-.1.7-.1.1 0 .2 0 .3-.1l.7-.2c.1 0 .2 0 .2-.1.7-.2 1.4-.6 2.1-1 0 0 .1 0 .1-.1.3-.2.6-.4.9-.7l.2-.2c.3-.2.6-.5.8-.8l.2-.2c.3-.3.6-.7.9-1.1l.3-.4c.1-.2.2-.4.3-.5l.3-.5.4-.9c.1-.2.2-.4.3-.7.1-.2.1-.4.2-.5.1-.2.2-.5.2-.7l.1-.4.3-1.5c0-.2.1-.4.1-.5 0-.3.1-.6.1-1 .1-.5.1-1.1.1-1.6.4-7.7 5.1-8.3 6-8.3zM3.5 11.9h9.6s.7 0 1.6.6c.8-2 1.8-3.7 3.1-5.2-1.7-1-3.4-1.4-4.7-1.4h-9.6c-1.7 0-3 1.3-3 3 0 1.6 1.3 3 3 3zM48.9 29.8l-10.2-7.4c-.5-.3-1.1-.4-1.6-.1-.5.3-.8.8-.8 1.3v4.4h-6.3c-.4 0-1.7-.1-2.9-.9-.7 2.1-1.6 3.9-2.7 5.4 2 1.1 4.1 1.6 5.6 1.6h6.3v4.4c0 .6.3 1.1.8 1.3.2.1.4.2.7.2.3 0 .6-.1.9-.3l10.2-7.4c.4-.3.6-.7.6-1.2 0-.6-.2-1.1-.6-1.3z"/></g></svg>