<svg xmlns="http://www.w3.org/2000/svg" width="41.5" height="50.9" viewBox="0 0 41.5 50.9"><g fill="#474A56"><path d="M35.2 15.3h1.4c.2 0 .4-.2.6-.3l2.8-2.8c.2-.2.3-.4.3-.6 0-.3 0-.5-.2-.7l-3.3-3.3c-.1-.1-.3-.2-.6-.2h-.2c-.2 0-.4.1-.6.3l-2.8 2.8c-.2.2-.3.4-.3.6v1.9c-2.5-1.7-5.2-2.8-8.2-3.3v-3.3h1.2c.2 0 .5-.1.6-.2.2-.2.4-.4.4-.7v-4.6c0-.3-.1-.5-.4-.7 0-.1-.3-.2-.5-.2h-9.3c-.2 0-.5.1-.6.2-.2.2-.4.4-.4.7v4.6c0 .3.1.5.4.7.2.1.4.2.6.2h1.2v3.4c-9.9 1.6-17.3 10.3-17.3 20.4 0 11.4 9.3 20.8 20.8 20.8 11.4 0 20.8-9.3 20.8-20.8-.1-5.6-2.4-11-6.4-14.9zm-14.4 31.5c-9.2 0-16.6-7.5-16.6-16.6 0-9.2 7.5-16.6 16.6-16.6 9.2 0 16.6 7.5 16.6 16.6 0 9.1-7.5 16.6-16.6 16.6zM27.6 20.9l-8.2 8.1c-.7.7-.7 1.8 0 2.5.3.3.8.5 1.2.5.5 0 .9-.2 1.2-.5l8.1-8.1c.7-.7.7-1.8 0-2.5-.5-.7-1.7-.7-2.3 0z"/></g></svg>