<svg xmlns="http://www.w3.org/2000/svg" width="49.2" height="36.1" viewBox="0 0 49.2 36.1"><g fill="#474A56"><path d="M48.2 0h-32c-.6 0-1 .5-1 1v22.400000000000002h1v.1h31.9v-.1h1v-22.4c.1-.5-.4-1-.9-1zM13.8 28.8c-.6-1.5-1.8-2.7-3.4-3.2-.5-.2-1.1-.3-1.6-.3-.6 0-1.1.1-1.6.3-1.6.5-2.8 1.7-3.4 3.2l-.3 1-.1.9v.1c.1 2.9 2.4 5.2 5.4 5.2 2.9 0 5.3-2.3 5.4-5.2v-.1c0-.3 0-.6-.1-.9 0-.3-.1-.6-.3-1zm-2.7 2.1c-.1 1.2-1.1 2.1-2.3 2.1s-2.2-.9-2.2-2.1v-.1c0-.3.1-.6.2-.9.2-.4.5-.8.9-1 .3-.2.7-.3 1.2-.3.4 0 .8.1 1.2.3.4.2.7.6.9 1 .1.3.2.6.2.9-.1 0-.1 0-.1.1zM32.9 25.6c.4-.3.7-.6 1.1-.8h-19.4c-.2 0-.3-.1-.4-.2v-.1h-.1c-.1-.1-.2-.3-.2-.4v-16.700000000000003c-.2-.2-.5-.3-.8-.3h-8.2c-.2 0-.4.1-.6.2-.2.1-4 3.2-4 9.1v7.6c-.2.1-.3.4-.3.6v5.2c0 .6.5 1 1 1h1.1v-.1c0-.3 0-.6.1-.9 0-.3.1-.7.2-1 .4-1.3 1.1-2.4 2.1-3.2.5-.4 1-.8 1.6-1 .4-.2.9-.3 1.4-.4.4-.1.9-.2 1.3-.2.5 0 .9 0 1.4.1l1.4.4c.6.3 1.1.6 1.6 1h-.1.1c1 .8 1.7 1.9 2.1 3.2.1.3.2.7.2 1l.1.9v.1h15v-.1c0-.3 0-.6.1-.9 0-.3.1-.7.2-1 .3-1.1 1-2.2 2-3.1zm-20.8-10.5h-9.7c.4-3.3 2.3-5.3 2.9-6h6.8v6zM42.2 28.8c-.6-1.5-1.8-2.7-3.4-3.2-.5-.2-1.1-.3-1.6-.3-.6 0-1.1.1-1.6.3-1.6.5-2.8 1.7-3.4 3.2l-.3 1c-.1.3-.1.6-.1.9v.1c.1 2.9 2.4 5.2 5.4 5.2 2.9 0 5.3-2.3 5.4-5.2v-.1c0-.3 0-.6-.1-.9-.1-.3-.1-.6-.3-1zm-2.7 2.1c-.1 1.2-1 2.1-2.2 2.1-1.2 0-2.2-.9-2.2-2.1v-.1c0-.3.1-.6.2-.9.2-.4.5-.8.9-1 .3-.2.7-.3 1.2-.3.4 0 .8.1 1.2.3.4.2.7.6.9 1 .1.3.2.6.2.9-.2 0-.2 0-.2.1zM39.9 24.6c.2.1.4.2.5.3.4.2.8.5 1.1.8 1 .8 1.7 1.9 2.1 3.2.1.3.2.7.2 1l.1.9v.1h2.1c.6 0 1-.5 1-1v-5.2h-7.1z"/></g></svg>