<svg xmlns="http://www.w3.org/2000/svg" width="200" height="100" viewBox="0 0 200 100"><g fill="#fff"><path d="M90.1 11v13.399999999999999c0 .5-.2.7-.6.9-9.4 4.4-14.7 11.7-15.7 22-1.3 13.6 8.7 26.1 22.2 28 14.5 2.1 27.5-7.5 29.9-21.9 1.9-11.5-4.5-23.2-15.2-28-.7-.3-1-.7-1-1.5v-13c13 2.7 28.6 15.6 29.8 36 1.3 21.9-15.1 40.1-36.1 41.9-22.1 1.9-40.6-14.1-43-34.9-2.3-21.9 13-39 29.7-42.9zm40.4 41.4v-.2l.6-.1c2-.4 4-.8 6.1-1.2.4-.1.6-.2.6-.7v-1.4c-2.4-.6-4.8-1.1-7.1-1.7v-.1h7.1v-1.8h-9.2v2.7c2.3.6 4.6 1.1 7.1 1.7-.4.1-.5.2-.7.2l-5.9 1.3c-.2 0-.5.2-.5.3v2.6h9.2v-1.8c-2.6.2-4.9.2-7.3.2zm-59.5 15.5c-1 .4-2 .2-2.6-.6-.7-.9-.8-2.1-.2-2.9.8-1.1 2-1.7 3.4-1.8 1.8-.1 3 1.8 2.3 3.2-.2.4-.4.7-.1 1.1.3.3.4.7.6 1.1h.3c.3-.6.8-1.1 1-1.7.9-2.5-1.3-5.7-4-5.7-1.9-.1-3.4.7-4.6 2.1-.8.8-1.2 1.9-1 3 .2 1.8 1.1 3.1 3 3.6-.3.3-.6.5-.8.7l.6 1.1 4.4-2.4c-.7-1.2-1.3-2.3-1.9-3.4l-1.4.8c.4.6.7 1.2 1 1.8zm-8.6-20.7h3.5v1.9c0 1.3-.3 1.5-1.6 1.5-.5 0-1.1 0-1.6.1-.1 0-.4.2-.4.3v1.7c.8-.1 1.6-.2 2.3-.2.8 0 1.6-.1 2.1-1 .7 1.1 1.6 1.5 2.7 1.3 1.1-.2 1.9-.8 2-1.9.2-1.8.2-3.7.2-5.6h-9.3c.1.6.1 1.2.1 1.9zm38.1 39.9c-.1-1.3-.1-2.4-.2-3.6.8-.1 1.5-.1 2.3-.1.8 0 1.1.3 1.2 1.1.1.7.1 1.3.3 2 0 .2.3.4.4.4.6 0 1.2-.1 1.7-.1-.1-.8-.2-1.4-.3-2.1-.1-.9-.1-1.8-1.1-2.2 0-.1 0-.1.1-.1 1-.7 1.2-1.7.9-2.8-.3-1.1-1.1-1.7-2.2-1.8-.9-.1-1.7 0-2.6.1-.9 0-1.9.1-2.9.2l.6 9.2c.5-.1 1.1-.2 1.8-.2zm32.1-30.4c-.2-.8-.6-1.4-1.3-1.7-1.5-.7-3.1-.1-3.7 1.5-.5 1.3-.8 2.6-1.2 3.9-.1.3-.2.6-.3 1l8.9 2.7c.2-.7.4-1.2.6-1.8-1.2-.4-2.3-.7-3.4-1.1.2-.8.4-1.5.7-2.2.3-.8.7-1 1.5-.8.6.2 1.2.3 1.8.4.2 0 .5-.1.5-.2.2-.6.4-1.2.5-1.6-.8-.2-1.4-.3-2.1-.4-.9-.2-1.7-.5-2.5.3zm-20.2 18.5l5.1 7.8c1.3-.8 2.5-1.6 3.7-2.5.9-.6 1.3-1.6 1.3-2.7-.1-2.2-1.1-3.9-2.9-5.1-1-.6-2.1-.7-3.1-.2l-4.1 2.7zm-6.8 2.2c1 3 1.9 5.9 2.9 8.8 2.3-.7 4.5-1.4 6.7-2.2-.2-.6-.3-1.1-.5-1.6-1.7.5-3.2 1-4.9 1.6-.3-.8-.5-1.5-.7-2.2 1.4-.5 2.8-.9 4.3-1.4-.2-.5-.3-1-.5-1.6-1.4.5-2.8.9-4.3 1.4l-.6-1.8c1.6-.5 3.1-1 4.6-1.5l-.5-1.6-6.5 2.1zm-31.5-4.5c-.2.6-.5 1-.6 1.5-.5 2.3 2.7 5.2 4.9 4.6 1.8-.5 2.6-2.3 1.6-3.9-.5-.9-1.2-1.8-1.8-2.7-.4-.7 0-1.4.8-1.4 1.2 0 2.2 1.4 1.9 2.5v.5l1.2 1.1c.8-1 1-2 .4-3.1-.6-1.3-1.6-2.2-3-2.6-.8-.3-1.6-.1-2.3.4-1.2.9-1.5 2.1-.7 3.4.5.9 1.2 1.7 1.8 2.7.2.3.1.8 0 1.1-.2.5-.8.5-1.2.3-1.4-.7-2.2-1.7-1.5-3.1-.6-.4-1-.8-1.5-1.3zm18.1 7.5c.1-.7.3-1.3.4-1.9 1.6.3 3.2.6 4.8 1 .1-.6.2-1.1.3-1.6-2.3-.5-4.5-.9-6.7-1.4-.6 3.1-1.2 6.1-1.8 9.1l6.9 1.4c.1-.6.2-1.1.3-1.6-1.7-.4-3.3-.7-5-1l.5-2.3 4.4.9c.1-.6.2-1.1.3-1.6-1.5-.4-2.9-.7-4.4-1zm-27.5-23.8l2.3-.6 1.1 4.4c.6-.1 1.1-.3 1.6-.4l-1.1-4.4c.7-.2 1.2-.3 1.8-.4.4 1.6.8 3.2 1.2 4.7.6-.1 1.1-.3 1.6-.4-.6-2.2-1.1-4.4-1.6-6.6l-9 2.2c.6 2.3 1.1 4.6 1.7 6.8.6-.1 1.1-.3 1.6-.4-.4-1.6-.8-3.2-1.2-4.9zm61.6 14.1c.8-1.1 1.6-2.2 2.5-3.2-.5-.4-.9-.7-1.3-1-.8 1.1-1.6 2.1-2.5 3.2-.6-.4-1.1-.8-1.6-1.2.9-1.2 1.9-2.4 2.8-3.7-.5-.3-.9-.7-1.3-1-1.4 1.8-2.7 3.5-4 5.3 2.5 1.9 4.9 3.8 7.4 5.6l1.2-1.6c-1.2-.9-2.2-1.6-3.2-2.4zm-35.7 5.8c-2.3-1.1-4.5-2.3-6.7-3.4-.3.5-.5 1-.7 1.5.9.4 1.7.9 2.5 1.3-1.2 2.3-2.3 4.5-3.4 6.8.6.3 1.2.6 1.7.9 1.2-2.3 2.3-4.5 3.4-6.8.9.4 1.7.8 2.5 1.2.2-.6.4-1 .7-1.5zm43.4-10.7c-2.8-1.4-5.5-2.8-8.2-4.3l-.9 1.7c2.8 1.4 5.5 2.8 8.2 4.3.3-.6.5-1.1.9-1.7zm-56.6.8l-7.2 5.9 1.2 1.5 7.2-5.9-1.2-1.5zM100 71.2c-12.2 0-21.9-9.7-21.9-22 0-12 9.9-21.7 22.1-21.7 12 0 21.7 9.9 21.7 22.1 0 11.9-9.9 21.6-21.9 21.6zm14.9-28h-29.7l14.9 25.9c4.9-8.7 9.8-17.3 14.8-25.9zm-31.3-2.7h32.8c-.1-4-3.3-7.6-7.2-8.1-4-.5-8.2 1.7-9.2 6.1-.5-2.3-1.8-3.9-3.7-5-1.9-1.1-4-1.4-6.2-.9-3.6.7-6.5 4.2-6.5 7.9zM92.6 25.1v-13.7c1.2 0 2.5-.1 3.7 0 .5.1 1.1.6 1.4 1 1.1 1.7.7 4.2-.7 5.5 1.6 1.1 1.6 2.8 1.4 4.5 0 .4-.2.9-.4 1.3-.3.7-.9 1.3-1.7 1.3-1.2.1-2.4.1-3.7.1zm2-5.6v2.9c.6 0 1.3.3 1.6-.4.4-.7.4-1.5-.1-2.2-.3-.6-1-.3-1.5-.3zm0-5.5v2.7c.6 0 1.2.2 1.5-.3.4-.6.4-1.4 0-2-.3-.6-.9-.4-1.5-.4zM98.7 20.7h2c.1.4.1.9.3 1.2.2.3.6.7.9.7.3 0 .7-.4.8-.7.4-.8 0-1.7-.8-2.1l-1.2-.6c-1-.5-1.5-1.3-1.7-2.3-.3-1.3-.2-2.7.2-4 .5-1.3 1.3-1.9 2.6-1.8 1.2 0 2 .7 2.4 1.9.2.7.3 1.5.4 2.3h-1.9c-.1-.3-.1-.8-.3-1.1-.1-.2-.5-.5-.7-.5-.2 0-.5.3-.6.5-.4.7-.1 1.6.5 2l.9.5c1.3.5 2.1 1.5 2.2 2.9.1 1.2.1 2.4-.2 3.5-.4 1.7-2 2.5-3.6 2.1-.8-.2-1.4-.8-1.7-1.6-.2-.8-.3-1.8-.5-2.9zM105.5 11.3h1.8v13.7h-1.8v-13.7zM67.5 47.2h2.4c0 1 .1 1.9 0 2.8-.1.6-.6.9-1.2.9s-1.1-.3-1.1-1c-.1-.8-.1-1.7-.1-2.7zM100 79.3h2.7c.7 0 1 .4 1.1 1.1.1.7-.2 1.2-.9 1.3l-2.7.2c-.1-.8-.1-1.6-.2-2.6zM130.5 60.7l-2.3-.7c.3-.9.5-1.8.8-2.6.2-.6.8-.8 1.4-.6.7.2 1 .6.8 1.3-.1.8-.4 1.6-.7 2.6zM118.2 80.5l-3.3-5 2.1-1.3c.6-.3 1.2-.1 1.7.3.9.8 1.5 1.7 1.8 2.9.2 1-.1 1.6-.9 2.2-.4.3-.9.6-1.4.9z"/></g></svg>