<svg xmlns="http://www.w3.org/2000/svg" width="200" height="100" viewBox="0 0 200 100"><path fill="#fff" d="M68.2 43.4c1.2 4.8 1.1 9.4-.3 14.2h-18.7v18.1c-1 .3-1.9.5-2.8.6-3.7.6-7.3.3-10.8-.5-.4-.1-.4-.2-.4-.5v-17.599999999999998l-.1-.1h-18.200000000000003c-.4-.7-.5-1.5-.6-2.2-.8-3.8-.7-7.6.1-11.3 0-.2.1-.4.2-.6h18.5v-19.1c4.7-1.3 9.4-1.3 14.1-.1v19.2c6.4-.1 12.7-.1 19-.1zM129 50.6h1.4c2 4.6 4.1 9.1 6.2 13.8h-2.1c-.6-1.4-1.2-2.7-1.8-4h-5.8c-.6 1.3-1.2 2.7-1.7 4h-9.6v-13.7c.6-.1 1.3 0 1.9 0v12h6.4c1.6-4 3.3-8 5.1-12.1zm-1.3 8h2.1c.7 0 1.3.1 2.1-.1-.7-1.6-1.4-3.2-2.2-4.9-.7 1.6-1.3 3.1-1.9 4.6-.1.1-.1.2-.1.4zM94.8 50.7v13.8h-1.9v-10.5c-.3 0-.4.2-.5.3-1.2 1.5-2.4 2.9-3.5 4.4-.4.5-.6.5-1 0-1.1-1.5-2.3-2.9-3.5-4.4l-.3-.4h-.1v10.4l-.1.1h-1.9v-13.7l1.6-.1c.3 0 .4.2.5.4l3.8 4.6.4.5c.3-.1.4-.3.5-.5l3.8-4.6c.3-.3.5-.5 1-.5.3.2.7.2 1.2.2zM152.2 64.4v-13.7l.2-.1c2.1 0 4.2-.1 6.3.1 3.7.4 6 3.1 6.2 6.5.1 3.1-1.8 6.1-5.2 6.9-.7.2-1.4.3-2.1.3h-5.3999999999999995zm2-1.8h3c.4 0 .8 0 1.2-.1 2.5-.3 4.3-2.2 4.4-4.9.1-2.5-1.4-4.5-3.9-5.1-1.5-.3-3.1-.1-4.6-.1l-.1.1v10.1zM101.2 64.4v-13.7c.1 0 .1-.1.1-.1 2.1 0 4.2-.1 6.3.1 3.5.3 6 2.9 6.2 6.5.2 3.2-2 6.2-5.3 7-.6.2-1.3.2-1.9.2h-5.4zm2-1.8c1.5 0 2.9.1 4.3-.1 2.5-.4 4.2-2.3 4.3-4.9.1-2.5-1.4-4.5-4-5-1.5-.3-3-.1-4.5-.1 0 0-.1 0-.1.1v10zM149.9 64.4h-1.5c-.3 0-.4-.2-.6-.4-1.8-2-3.5-4-5.3-6.1l-3-3.4c-.1-.2-.3-.3-.6-.6v10.5c-.5.2-1.1.2-1.8 0v-13.7l1.3-.1c.3 0 .4.2.6.4l5.9 6.7 2.6 2.9c.1.1.2.3.5.4v-10.4h1.9v13.8zM94.8 47.5h-1.9v-10.5c-.3.1-.4.3-.6.5-1.1 1.4-2.2 2.8-3.3 4.1l-.3.4c-.2.2-.4.2-.6 0-.1-.1-.2-.2-.3-.4l-3.3-4.1c-.1-.2-.2-.4-.5-.5-.2.5-.1 1-.1 1.5v9.1h-1.9v-13.7h1.6c.3 0 .4.2.5.4 1.3 1.5 2.5 3.1 3.8 4.7.1.2.3.4.5.5l4.5-5.6h1.8c.1 4.4.1 9 .1 13.6zM109.6 47.5v-13.6c.1-.2.3-.1.5-.1h4.9c1 0 2.1.2 3.1.5 2.5 1 3.9 2.9 4.2 5.6.4 4.1-2.6 7.4-6.7 7.6-1.9.1-3.8 0-5.7 0h-.3zm2-1.8h3.9l.6-.1c2.6-.5 4.2-2.5 4.1-5.2-.1-2.6-1.8-4.4-4.4-4.7-1.2-.2-2.4-.1-3.7-.1-.2 0-.4-.1-.5.1v10zM101.3 33.7h1.4c2 4.6 4.1 9.1 6.1 13.8-.7.1-1.3 0-2 0l-1.8-4h-5.8c-.6 1.3-1.1 2.6-1.7 4-.6.1-1.3 0-2 0l5.8-13.8zm2.9 7.9c-.7-1.6-1.4-3.2-2.2-4.9-.7 1.7-1.4 3.3-2 4.9h4.2zM131.9 47.5h-7.9v-13.7h7.8v1.7h-5.8v4.1h5.5v1.8h-5.5v4.2h5.9v1.9zM173.1 53.7c-.5-.4-.9-.7-1.4-.9-.9-.4-1.7-.6-2.7-.4-.6.2-1.1.5-1.3 1.2-.2.7.1 1.2.6 1.7s1 .8 1.6 1.1c.8.4 1.6.9 2.3 1.5.8.7 1.3 1.5 1.4 2.5.3 2.2-1.2 4.1-3.4 4.3-1.4.1-2.7-.2-3.9-.9-.3-.2-.5-.4-.4-.8v-2l.6.6c.7.7 1.6 1.2 2.6 1.4.5.1 1 0 1.5-.2 1.2-.5 1.5-1.6.8-2.7-.3-.4-.7-.7-1.1-1-.5-.4-1.1-.7-1.7-1-.6-.4-1.1-.7-1.6-1.2-1-1-1.4-2.1-1.1-3.5.3-1.3 1.2-2.1 2.5-2.5 1.5-.4 2.9-.2 4.3.5.3.1.4.3.4.6-.1.4 0 1 0 1.7zM142.6 47.5c-.4.1-.7.1-1 0-.1-.5-.2-13 0-13.8.5-.1.9 0 1.3.4 3.2 3.7 6.4 7.4 9.6 11 .1.1.1.2.3.3v-11.8c.4-.1.8-.1 1.2 0v13.7c-.6.3-.8.2-1.3-.3l-5.7-6.6c-1.3-1.5-2.6-3-4-4.6l-.2-.3-.2.1v11.9zM179.2 33.8c.4-.1.7-.1 1.1 0v13.7c-.4.1-.4.1-1.1 0v-6.3c-.5-.2-7.8-.2-9-.1-.2.2-.1.5-.1.7v5c0 .2.1.5-.1.7-.3.1-.6.1-1 0v-13.8c.4-.1.7-.1 1.1 0v6.2c.5.1 8.1.2 9.1 0v-6.1zM183.8 34.7v5.4h6.2c.1.3.1.6 0 1h-6.199999999999999v5.4h4.4c.7 0 1.4-.1 2.1.1.1.3.1.6.1.8-.6.2-7.1.2-7.7 0v-13.6c.5-.2 6.7-.2 7.5 0 .1.3.1.5 0 .9h-6.4zM97 50.7h1.9c.1.5.2 12.7.1 13.7-.6.1-1.2 0-1.9 0-.1-4.6-.1-9.1-.1-13.7zM162.9 34.7v12.8c-.4.2-.7.1-1.1.1v-12.8h-5c-.2-.3-.1-.6-.1-.9h11.4c.1.4.1.4 0 .9-1.7-.1-3.4-.1-5.2-.1zM139.1 33.8v13.7c-.3.2-.7.1-1 .1v-13.7c.3-.2.6-.2 1-.1zM42.5 82.9c-18.1 0-32.9-14.8-32.9-32.9s14.8-32.9 32.9-32.9 32.9 14.8 32.9 32.9-14.8 32.9-32.9 32.9zm0-59.6c-14.7 0-26.7 12-26.7 26.7s12 26.7 26.7 26.7 26.7-12 26.7-26.7-12-26.7-26.7-26.7z"/></svg>