<svg xmlns="http://www.w3.org/2000/svg" width="200" height="100" viewBox="0 0 200 100"><g fill="#fff"><path d="M78.8 28.8h16.1v3.2c.4-.4.7-.6 1.1-.9 1.8-1.6 4-2.6 6.4-2.9.7-.1 1.4-.1 2.1-.1 3.1.1 5.7 1.4 7.5 4 .3.4.6.8.9 1.3l.9-1.1c1.3-1.6 2.9-2.8 4.9-3.5 1.7-.6 3.5-.9 5.3-.7 2.6.2 4.9 1.2 6.7 3.3 1 1.1 1.6 2.4 1.8 3.8.2 1.1.3 2.2.4 3.2.2 2.9.1 5.8.1 8.7v11.4c-.4.1-6.6.2-7.5 0v-15.6c0-1.4-.1-2.7-.4-4-.1-.7-.3-1.4-.7-2-.8-1.3-1.9-1.9-3.4-2-1-.1-2 0-2.9.4-1.2.5-2.1 1.3-2.8 2.4-.6 1-.9 2.1-1.1 3.3-.2 1.4-.2 2.9-.2 4.4v13.2h-7.5v-14.9c0-1.5-.1-3-.4-4.5-.2-1-.5-1.9-1.2-2.6-.8-1.1-1.9-1.6-3.3-1.7-1.4-.1-2.7.3-3.9 1.1-1 .8-1.7 1.8-2.2 3-.3.9-.5 1.8-.6 2.7-.2 1.9-.2 3.8-.2 5.7v11.2h-7.3v-23.3c-.4-.1-7.4-.1-8.3 0v23.300000000000004l-.1.1h-7.3v-23.300000000000004c-1.3-.1-2.6 0-3.8 0v-6.4h3.8v-10.8h7.4v9c-.3.3-.3.9-.3 1.6zM56.5 55l-.9.8c-1.3 1.1-2.8 2-4.4 2.4-.7.2-1.4.4-2.1.4l-2.2.1c-2.4-.1-4.6-.7-6.6-2-2.6-1.6-4.5-3.8-5.7-6.5-.6-1.3-.9-2.7-1.1-4.1-.1-1.1-.3-2.2-.2-3.3.1-2.1.4-4.2 1.3-6.2 1.3-3.1 3.5-5.4 6.5-7 1.3-.7 2.8-1.1 4.3-1.3.7-.1 1.4-.1 2.1-.1 1.4 0 2.8.3 4.1.8 1.5.6 2.8 1.5 4.1 2.5.3.2.5.4.9.7v-3.2h7.4v25.8c0 2.4-.3 4.8-1.1 7.2-1.1 3.3-3.4 5.5-6.5 7-1.5.7-3.1 1-4.7 1.2-1.3.2-2.5.3-3.8.2-1.8-.1-3.7-.2-5.5-.7-2.5-.7-4.7-1.9-6.4-3.8-1.1-1.2-1.9-2.6-2.5-4.1l-.3-.7h7.6c.4 0 .6.1.9.3 1.1 1.1 2.4 1.6 3.9 2 1.2.3 2.5.3 3.7.2 1.7-.1 3.4-.5 4.8-1.5 1-.7 1.6-1.6 1.9-2.8.2-.7.3-1.5.3-2.2l.1-1.5c.1-.4.1-.5.1-.6zm.5-11.5c-.1-.7-.2-1.4-.3-2-.4-2.2-1.5-3.8-3.3-5.1-1.1-.7-2.3-1.1-3.6-1.3-1.2-.2-2.5-.1-3.7.3-2.3.7-3.9 2.2-4.9 4.3-.4.8-.6 1.7-.7 2.6-.2 1.6 0 3.2.6 4.8 1.4 3.2 4 4.8 7.4 4.9.7 0 1.4-.1 2.1-.2 2.3-.5 4-1.8 5.1-3.9.9-1.5 1.2-2.9 1.3-4.4zM166.8 58.6h-7.4l-.1-1.5v-1.6c-.3.2-.4.3-.5.5-1.2 1-2.4 1.9-3.8 2.5-1 .4-2 .7-3 .8-1 .2-2.1.2-3.1.1-2.3-.2-4.3-.9-6.2-2.2-1.8-1.3-3.3-2.8-4.4-4.7-.9-1.5-1.5-3-1.9-4.7-.4-1.8-.5-3.7-.3-5.5.2-2.4.7-4.7 1.9-6.8 1.3-2.4 3.2-4.3 5.6-5.7 1.5-.9 3.1-1.4 4.8-1.5l1.6-.1c2.6 0 5.1.7 7.2 2.3l1.4 1.1c.2.2.4.3.7.6 0-.2.1-.3.1-.4v-2.8h7.3v29.3c.1 0 .1.1.1.3zm-7.1-14.9c.1-1.8-.3-3.6-1.3-5.1-1-1.6-2.4-2.7-4.2-3.3-1.1-.3-2.1-.4-3.2-.4-.8.1-1.7.2-2.4.5-2.2.9-3.7 2.6-4.5 4.9-.6 1.7-.6 3.4-.4 5.1.2 1.3.6 2.5 1.4 3.6 2.1 3 5.1 4 8.4 3.4 2.4-.5 4.1-1.9 5.2-4 .7-1.5 1-3 1-4.7zM77.8 80.5h-.9c-.4-1-.7-2.1-1.2-3.1l-.6 3.1h-.9l.9-5.3h1c.4 1.2.8 2.4 1.2 3.7.3-.6.5-1.3.7-1.9l.6-1.8h1c.3 1.8.6 3.5.9 5.2-.3.1-.6 0-.9 0-.3-1.1-.3-2.2-.7-3.3-.4 1.3-.8 2.3-1.1 3.4zM70.3 80.2c-1.2.6-2 .4-2.7-.4-.5-.6-.6-2 .1-2.7.6-.7 1.5-.8 2.5-.2.1-.1.1-.4.4-.3.2 0 .4 0 .6.1l.1.6v2.7c0 .3 0 .7-.1 1-.1.5-.4.8-.9 1-.6.3-1.1.3-1.7.1-.6-.1-1.1-.5-1.3-1.1.5 0 .9-.1 1.3.1s.8.2 1.2 0c.4-.1.6-.5.5-.9zm-.9-2.8c-.7 0-1.2.5-1.2 1.1 0 .6.5 1.2 1.1 1.2.6 0 1.1-.5 1.1-1.1 0-.7-.4-1.2-1-1.2zM125 80.1c-.4.2-.7.4-1.2.4-.8 0-1.7-.7-1.8-1.4-.1-.6-.1-1.2.2-1.8.5-.9 1.6-1.1 2.5-.6.1 0 .2.1.3.2 0-.2.1-.3.1-.4l.9.1v4c0 .6-.3 1-.9 1.3-.6.3-1.3.3-2 .1-.5-.2-.9-.5-1.1-1 .5 0 .9-.1 1.3.1s.8.2 1.2.1c.4-.2.5-.5.5-1.1zm.1-1.5c0-.6-.5-1.2-1-1.2-.6 0-1.2.5-1.2 1.1 0 .6.5 1.2 1 1.2.7 0 1.2-.5 1.2-1.1zM46.5 76.6h.8c0 .1.1.2.2.4.3-.3.6-.4 1-.5 1-.1 2 .7 2 1.9 0 .7-.2 1.3-.8 1.8-.6.5-1.4.5-1.9.2-.1-.1-.2-.1-.4-.2l-.1 1.7h-.8c-.1-.4-.1-3.8 0-5.3zm3 2l-.2-.6c-.3-.6-1-.7-1.6-.4-.5.4-.7 1.3-.2 1.8.1.2.3.3.5.4.9.1 1.5-.4 1.5-1.2zM42.5 76.6l.2.3c.4-.3.8-.4 1.2-.4.9 0 1.6.7 1.7 1.6v.7c-.1 1.5-1.5 2.3-2.8 1.6l-.2-.1v1.7h-.9v-5.3c.1 0 .2-.1.2-.1h.6zm1.1 3.1c.8.1 1.1-.6 1.1-1.1 0-.6-.5-1.2-1.1-1.2-.6 0-1.2.6-1.1 1.2.1.6.5 1.2 1.1 1.1zM130.2 76.2v.9c.6.2 1.3 0 1.9.1v.9l-.9.1h-.9c-.2.5-.1.9-.1 1.5h1.9v1h-2.8c-.1-.4-.1-4.5 0-5.3h2.8v.9c-.6-.1-1.2-.2-1.9-.1zM99.8 80.5c-.1-.1-.1-.2-.1-.3l-1 .4c-.8.1-1.5-.4-1.9-1.1-.4-.9-.1-1.9.4-2.5.6-.6 1.4-.7 2.1-.3l.3.2.2-.3c.3 0 .5 0 .8.1.1.4.2 2.4.1 3.8-.3.1-.6 0-.9 0zm-1.1-.8c.7 0 1.1-.4 1.1-1.2 0-.7-.5-1.2-1.1-1.2-.7 0-1 .5-1.1 1.2-.1.7.4 1.3 1.1 1.2zM83.8 76.9c.2-.4.2-.4 1-.2.1.4.1 3.1 0 3.8h-.8c0-.1-.1-.2-.1-.2h-.1c-.6.4-1.2.5-1.8.2-.7-.4-1.1-.9-1.1-1.7 0-.5 0-1 .3-1.4.6-.9 1.6-1.1 2.5-.6l.1.1zm-2 1.7c0 .6.3 1 .7 1.1.8.2 1.4-.2 1.5-1.1 0-.5-.3-1-.7-1.1-.8-.4-1.5.1-1.5 1.1zM166.5 79.8c-.5.8-1.6 1.1-2.6.7-1.1-.5-1.4-1.6-1.1-2.5.4-1.1 1.2-1.5 2.5-1.3.9.2 1.6 1.1 1.5 2.3h-3.1c-.1.3.1.5.3.7.4.3.8.5 1.2.2.5-.5.9-.4 1.3-.1zm-2.8-1.8c.9.1 1.7.1 2.1-.1-.2-.5-.6-.6-1-.7-.5.1-.9.3-1.1.8zM153.4 78.8h-3.2c.3 1 1 1.2 2.1.6l.7.3c-.3.7-1.4 1.1-2.3.8-1.1-.3-1.6-1.3-1.4-2.3.2-1.1 1-1.9 2.3-1.8.8.2 1.8.9 1.8 2.4zm-1-.7c-.2-.5-.6-.8-1-.8-.5 0-.8.2-1.1.8h2.1zM144.2 79.4l.7.3c-.6.9-1.7 1.1-2.7.7-.9-.4-1.4-1.4-1-2.6.3-1 1-1.5 2.4-1.3.9.1 1.6.9 1.6 2.2l-1.6.1h-1.6c.1.6.3.8.8 1 .6.1 1-.1 1.4-.4zm0-1.3c-.2-.6-.6-.8-1-.8-.5 0-.9.2-1.1.8h2.1zM33.3 79.5l.8-.5c.1.1.2.2.3.4.1.1.2.2.3.2.3.1.7.1.9-.2.1-.2.1-.5-.2-.8l-1.3-1.2c-.1-.1-.3-.3-.3-.4-.4-.8 0-1.7.8-1.9.7-.2 1.5.1 1.9.8l-.6.6c-.2-.1-.3-.3-.4-.4-.3 0-.5-.1-.7-.1-.3 0-.4.3-.3.6.1.2.2.3.4.4.3.3.6.5.9.7.4.4.7.8.8 1.3.1.8-.5 1.5-1.2 1.6-1 .2-1.6-.1-2.1-1.1zM53 76.5c1.1 0 2.1.9 2.1 2.1 0 1.1-.9 2.1-2.1 2.1-1.2 0-2.1-.9-2.1-2.2.1-1.1 1-2.1 2.1-2zm1.1 2.1c0-.7-.5-1.2-1.1-1.2-.6 0-1.1.6-1.1 1.2 0 .7.5 1.2 1.1 1.1.7 0 1.1-.4 1.1-1.1zM62.9 76.6h.9l.1.3c.1 0 .2 0 .2-.1.3-.2.7-.3 1.1-.3.6.1 1.1.5 1.1 1.1v2.9h-.9v-2.2c0-.5-.2-.8-.6-.9-.4-.1-.7.2-.9.6-.1.3-.1.6-.1.9v1.6h-1c.1-1.3.1-2.6.1-3.9zM89.3 80.5h-.9v-2.4c-.1-.4-.3-.7-.6-.7s-.7.2-.8.6c-.1.3-.1.6-.1 1v1.6h-.9c-.1-.4-.1-3 0-3.9l.8-.1.2.3h.2c.3-.2.7-.3 1.1-.3.6 0 1.2.5 1.2 1.2-.2.8-.2 1.7-.2 2.7zM155 76.6c0 .1.1.2.2.3.4-.2.8-.4 1.3-.4.6.1 1.1.5 1.2 1.1v2.9h-.9v-2.6c-.1-.3-.2-.5-.5-.6-.3 0-.6.1-.8.4-.2.3-.3.5-.2.9v1.9h-.9v-3.9h.6zM117.6 76.6h.9l.1.3c.1 0 .1 0 .2-.1.3-.2.7-.3 1.1-.3.6 0 1.1.5 1.1 1.1v2.8h-.9v-2.4c0-.5-.3-.8-.8-.7-.2 0-.3.1-.5.2-.3.4-.4.8-.4 1.3v1.6h-.9c0-.3 0-2.9.1-3.8zM39.8 76.6c.3 0 .6 0 1-.1 0 1 .1 2-.1 2.9-.1.5-.4.8-.9 1-.8.3-2 .1-2.3-.8-.1-.2-.2-.5-.2-.8v-2.4l.9.1v1.6c0 .3 0 .6.1 1s.3.5.7.5c.4 0 .6-.1.7-.5.1-.2.1-.4.1-.7v-1.8zM109.5 76.6v2.4c.1.4.3.7.7.7.4 0 .7-.1.7-.6l.1-1.9v-.6h.9v1.9c0 .2-.1.3 0 .5.1.9-.6 1.8-2 1.7-.8-.1-1.3-.7-1.4-1.7v-2.3c.3-.1.6-.1 1-.1zM92.6 76.6h1v2.5c0 .7-.4 1.2-1.1 1.4-.5.2-1 .1-1.5-.1s-.7-.7-.8-1.2c-.1-.9 0-1.7 0-2.6h.9v2.3c0 .5.3.8.7.8.5 0 .7-.2.7-.8v-1.6c.1-.1.1-.4.1-.7zM134 78.5c-.5-.6-.9-1.3-1.3-1.9h1.1c.3.3.5.7.8 1.1.3-.4.5-.7.8-1h1.1c-.5.6-.9 1.2-1.3 1.8.5.7.9 1.3 1.5 2.1h-1.1l-.9-1.2c-.2.2-.4.4-.5.7-.3.5-.7.7-1.2.6h-.3c.3-.9.8-1.5 1.3-2.2zM105.5 77.4c-.3.1-.5.3-.7.4l-.4-.3c-.7-.4-1.6-.1-1.9.7-.2.7.2 1.4.9 1.5.5.1.8 0 1.4-.4l.7.5c-.7.7-1.5.9-2.3.8-.8-.2-1.4-.7-1.6-1.5-.3-1.3.6-2.5 1.8-2.6.8-.1 1.5 0 2 .7 0 0 0 .1.1.2zM140 79.3c.3.2.5.4.7.5-.9 1-2.5 1.1-3.4.2-.6-.6-.7-1.3-.4-2.1.2-.8.8-1.2 1.6-1.4.9-.1 1.7 0 2.3.8-.2.2-.5.3-.7.4l-.6-.3c-.5-.2-.9-.1-1.3.2-.4.3-.5.8-.4 1.3.1.4.4.7.8.8.5.1 1 .1 1.4-.4zM161.4 79.3c.3.2.5.3.7.5-.2.3-.4.5-.6.6-.8.4-2 .4-2.8-.4-.6-.6-.8-1.3-.5-2.1.3-.8.8-1.2 1.6-1.4.8-.1 1.5 0 2.1.6l.2.2c-.2.2-.5.3-.7.4l-.6-.3c-.5-.2-1-.1-1.4.3-.4.3-.4.8-.3 1.2.1.4.5.7.9.8.5.1 1 .1 1.4-.4zM96.2 75.1v.6c-.7.2-.7.2-.6.9.2 0 .3 0 .5.1v.7c-.2 0-.4 0-.6.1v3.1h-.9v-2.6c0-.3 0-.5-.3-.6v-.7c.3-.1.4-.2.4-.5v-.1c0-1.1.4-1.4 1.5-1zM107.4 80.5h-1v-3l-.5-.1v-.8c.2 0 .3 0 .5-.1 0-.5 0-.9.1-1.4h.9c.1.5 0 .9 0 1.4h.5v.8h-.5v3.2zM60.2 77.4h-.5v3h-1v-3h-.5v-.8l.2-.1c.2 0 .3-.1.3-.3v-1.1h.9c0 .5 0 .9.1 1.4h.5v.9zM147.7 75.1h.8c.1.4.1 4.5 0 5.4h-.8c-.1-.4-.1-4.5 0-5.4zM112.8 76.6h.7c0 .1.1.2.2.3.2-.1.4-.3.6-.3.2-.1.4 0 .6 0l-.3.8c-.7.1-.7.1-.8.8l-.1 1v1.4h-.9c0-.5-.1-3 0-4zM56.7 80.5h-.9v-3.9c.2 0 .5 0 .7-.1 0 .2.1.3.1.4.3-.4.7-.6 1.3-.4l-.3.7c-.7.1-.8.2-.8.9v1.7c-.1.3-.1.5-.1.7zM146.7 80.5h-.8v-5.4c.3-.1.5-.1.8-.1.1.5.1 4.6 0 5.5zM116.4 76.6v3.9c-.3.1-.6.1-.9 0v-3.9h.9zM61 76.6h.9v3.9h-.8c-.2-.4-.2-3.3-.1-3.9zM116 76.2c-.4 0-.6-.3-.6-.6s.3-.6.6-.6.6.3.6.6-.3.6-.6.6zM61.4 76.2c-.4 0-.6-.2-.6-.6 0-.4.2-.6.6-.6.3 0 .6.3.6.6s-.3.6-.6.6z"/></g></svg>