<svg xmlns="http://www.w3.org/2000/svg" width="200" height="100" viewBox="0 0 200 100"><g fill="#fff"><path d="M45.8 30.8c-3.4 1.5-6.6 2.9-9.9 4.3-1.6.7-2.8 1.7-3.9 3.4l1.8 1.5c2.1 2.1 4.2 4.1 6 6.5.4.6.9.7 1.6.5.9-.3 1.9-.5 2.9-.7.8-.2 1.4-.1 2.1.6-3.6 1.5-6.1 4-7.7 7.7-.6-.8-.7-1.4-.6-2.1.3-1.3 1.2-2.7.7-3.9-.5-1.1-2-1.7-2.9-2.6l-5.7-5.8c-1.6.9-2.6 2-3.2 3.5-1.4 3.3-2.9 6.7-4.4 10.1-.6-1-.9-1.9-.6-3l3.3-14.1c.2-.8.1-1.3-.5-1.8-1.6-1.5-3-3-4.5-4.5-1.1-1-1.7-2.3-2-3.9 1.5.1 2.7.8 3.7 1.8 1.6 1.5 3.1 3 4.6 4.6.6.7 1.2.9 2.1.6l14.1-3.3c1.1-.2 2 0 3 .6zM60.8 32.1c-9.3-7.6-22.4-8.6-32.7-1.2l-5.1-5.1c11.4-9.9 30.1-6.4 37.8 6.3zM20.7 64.7c-8.8-7.9-10.8-23.2-3-33.4l5 5c-3 4.1-4.8 8.7-5.1 13.8-.4 5.2.7 10 3.1 14.6zM45.1 63h-3c.8-3.8 1.6-7.5 2.4-11.2h5.1c.4 2.7.9 5.5 1.4 8.4 1-2.8 1.1-5.6 1.9-8.4h2.9l-1.8 8.6c-.6 2.6-.6 2.6-3.3 2.6-2.5 0-2.4 0-2.8-2.4-.3-2-.6-4-1.2-6l-1.6 8.4zM41 76.4c.9-1.8 1.8-3.5 2.6-5.1l2.8-5.4c.3-.6.6-.8 1.2-.7h3.7c.3 3.8.7 7.5 1 11.2h-2.9c-.3-.5-.2-1.2-.4-1.9h-3.6c-.4 0-.6.3-.7.6-.3 1.2-1.2 1.5-2.3 1.4-.4-.1-.8-.1-1.4-.1zm5.2-4.2c1.1.1 1.9.1 2.8 0-.1-1.5-.2-3-.3-4.4h-.2c-.8 1.3-1.5 2.8-2.3 4.4zM137.5 65.1c0 .4.1.6.1.8.3 3.5.6 6.9 1 10.4-1 .2-2 .1-2.9.1-.3-.5-.1-1.2-.4-1.9h-3.7c-.4 0-.6.3-.6.6-.3 1.2-1.1 1.5-2.2 1.3-.4-.1-.9 0-1.4 0 0-.7.4-1.1.7-1.6l4.5-8.8c.3-.6.7-.9 1.4-.9 1.1.1 2.2 0 3.5 0zm-2.3 7.1c-.1-1.6-.2-3-.3-4.4h-.2c-.7 1.5-1.4 2.9-2.2 4.5.9-.1 1.7-.1 2.7-.1zM95.3 63.1v-5.1c-.1 0-.1 0-.2-.1l-1.4 3.4c-.9 2.2-.3 1.8-2.8 1.8h-1.6v-7.8c.9-.3 1.7-.1 2.6-.1-.2 1.9-.3 3.7-.5 5.9.8-1 1-1.9 1.4-2.7l.4-.9c1.1-2.5 1.1-2.5 3.9-2.2v5.6c.9-1.2 1.2-2.5 1.7-3.8.8-2 .8-2 3.1-1.8l-2.9 7.4c-.1.4-.4.4-.8.4h-2.9zM86.5 79.8c.8-3.6 1.5-7.1 2.3-10.6.3-1.3 1.4-.5 2.2-.7.5-.1.7.2.3.8 1.1-.8 2.3-1.1 3.5-.8 1.1.3 1.7.9 1.6 2.1-.2 1.3-.5 2.6-.9 3.8-.5 1.9-3.8 3-5.4 1.1-.2 1-.5 2-.6 3-.1 1.1-.6 1.6-1.7 1.4-.5-.1-.9-.1-1.3-.1zm5.1-5.3c.7 0 1.2-.3 1.4-.9.2-.5.3-1 .4-1.5.1-.6.4-1.3-.6-1.6-.8-.2-1.6 0-1.9.8-.2.6-.4 1.3-.5 2-.1.9.4 1.2 1.2 1.2zM79.3 62.9c.8-3.8 1.6-7.4 2.4-11.1h2.6c-.3 1.4-.6 2.8-1 4.5 1-1 2-1.4 3.2-1.3 1.2.2 1.9.9 1.7 2.1-.3 1.8-.7 3.5-1.1 5.3-.1.4-.3.7-.7.7-.6 0-1.3.1-2-.1l.9-4.2c.1-.6.6-1.4-.4-1.6-.9-.2-1.6.2-1.9 1.1-.3.9-.4 1.8-.6 2.8-.6 2.2-.6 2.2-3.1 1.8zM157.6 72.2c.1-.4.1-.6.2-.9.1-.4.3-.8-.2-1.1-.5-.3-1.2-.4-1.5 0-.9 1.1-1.9.4-3.1.7.3-1.4 1-2.2 2.3-2.4 1.1-.2 2.3-.2 3.4 0 1.4.2 1.9.7 1.7 2-.2 1.8-.7 3.6-1 5.4-.1.5-2 .9-2.5.4-.4-.3-.5-.3-.9-.1-.5.3-1 .3-1.6.3-1 0-2.2.2-2.5-1.2-.3-1.4.6-3 1.8-3.4 1.4-.5 2.7-.6 3.9.3zm-1.9 2.6c.8 0 1.5-.1 1.5-1 0-.7-.7-.6-1.1-.6-.7-.1-1.5.1-1.5 1 .1.7.7.6 1.1.6zM97.8 70.9c.4-1.5 1.2-2.2 2.6-2.4 1.1-.1 2.3-.1 3.4.1.8.1 1.4.6 1.3 1.5 0 2.1-.6 4.1-1.2 6-.3.9-1.6.5-2.4.2-.3-.1-.5-.2-.9-.1-.5.3-1 .3-1.6.3-1 0-2.1.1-2.4-1.1-.3-1.3.4-3 1.6-3.4 1.3-.5 2.7-.7 4 .3l.2-.9c.1-.4.3-.9-.2-1.1-.5-.3-1.2-.4-1.5 0-.7 1-1.8.4-2.9.6zm2.6 3.9c.8 0 1.5-.1 1.5-1 0-.7-.7-.6-1.1-.6-.7-.1-1.5.1-1.5 1 .1.7.7.6 1.1.6zM186.5 73.8c.1.7-.3 1.2-.7 1.7-1 1.1-4.9 1.4-6.1.5-.5-.4-.7-1-.7-1.6 0-.4.1-.9.2-1.3.6-3.5 1.5-5 6.2-4.4 1.4.2 2 1 1.9 2.4-.2 2-.2 2-2.2 2h-3.1c-.1 0-.1.1-.3.1-.1.5-.3 1 .2 1.4.5.4 1.3.4 1.7 0 .8-1.2 1.9-.7 2.9-.8zm-2.1-2.4c.1-1 .1-1.1-.7-1.2-.8 0-1.6 0-1.6 1.2h2.3zM117.1 72.9c-.1.7-.4 1.2.2 1.6.5.3 1.2.3 1.8 0 1.2-.7 1.2-.7 2.9-.6-.2 1.2-.8 2-1.9 2.4-1.4.4-2.8.4-4.1.1-1.2-.2-1.7-1.1-1.6-2.4.1-1 .3-2 .7-3 .5-1.5 1.5-2.3 3.1-2.4l1.6-.1c2.6.1 3.1.9 2.8 3.4-.1.9-.5 1.2-1.3 1.1-1.5-.1-2.8-.1-4.2-.1zm2.7-1.5c.2-.7.1-1.1-.6-1.2-.8 0-1.6-.1-1.7 1.2h2.3zM61 72.9h-5c-.2.6-.5 1.2.2 1.6.5.3 1.3.4 1.7-.1.9-1.1 1.9-.5 3-.6-.3 1.3-.9 2.2-2.2 2.5-1.3.3-2.5.3-3.8.1-1.1-.2-1.7-.9-1.7-2.1 0-1.4.3-2.7.9-3.9.5-1.1 1.3-1.6 2.4-1.8.4-.1.7-.1 1.1-.1 3.5-.3 4.5.9 3.4 4.4zm-4.6-1.5h2.4c.3-.7.1-1.1-.6-1.2-.9 0-1.7 0-1.8 1.2zM73.2 76.5c-3.2 0-3.9-.7-3.2-3.9.1-.7.4-1.4.6-2.1.4-1.1 1.3-1.7 2.5-1.9 1.1-.2 2.3-.2 3.4 0 1.3.2 1.8.8 1.7 2.1-.1.7-.2 1.4-.3 2-.7 3.1-1.5 3.8-4.7 3.8zm.4-2c.8.1 1.4-.3 1.5-1.1l.3-1.4c.1-.6.4-1.3-.5-1.5-.8-.2-1.7-.1-2 .8-.2.6-.3 1.2-.5 1.9-.1.9.2 1.4 1.2 1.3zM60.4 55c3.2 0 3.8.7 3.2 3.8v.2c-.8 3.6-3.4 5.1-7 3.8-.8-.3-1.2-.8-1.2-1.7 0-.8.1-1.6.3-2.4.7-2.9 1.6-3.7 4.7-3.7zm-.3 2c-.8-.1-1.4.2-1.6 1-.1.5-.2 1-.4 1.5-.1.6-.3 1.3.5 1.5.8.2 1.7.2 2-.9l.5-2c.2-.7-.2-1.1-1-1.1zM118 57.3c-1-.1-2 .4-2.8-.5-.2-.2-.8-.1-1.2-.1-.5 0-.8.2-.8.7 0 .5.4.5.8.5l2.6.2c1.1.2 1.4.9 1.3 1.9-.3 1.7-1.1 2.6-2.8 2.9-1.1.2-2.1.2-3.2.1l-.7-.1c-.8-.2-1.2-.7-1.2-1.5 0-.4 0-.9.4-.9.7 0 1.7-.4 2.2.3.7.9 1.4.5 2.2.5.4 0 .6-.4.5-.9-.1-.4-.4-.5-.7-.5-.9 0-1.8 0-2.7-.2-1-.3-1.4-.9-1.2-1.9.3-1.7 1.2-2.7 2.9-2.8 1.1-.1 2.1-.1 3.2 0 1.1.3 1.5.8 1.2 2.3zM109.2 59.5h-4.9c-.3.6-.6 1.2 0 1.6.5.3 1.4.4 1.7 0 .9-1.1 1.9-.5 3-.6-.2 1.1-.7 1.9-1.7 2.3-1.5.6-3.1.6-4.7.1-.8-.2-1.2-.9-1.2-1.8 0-1.5.3-2.9 1-4.3.4-.8 1-1.4 1.9-1.6.5-.1 1-.2 1.6-.2 3.5-.1 4.3 1 3.3 4.5zm-4.7-1.5c.9.2 1.6.2 2.4 0 .3-.7-.1-1.1-.7-1.1-.7-.1-1.5 0-1.7 1.1zM78.7 74c.9.2 2-.6 2.8.6.3.5 1.3.3 2 0 .3-.1.3-.5.3-.7 0-.4-.3-.5-.6-.5-.6 0-1.1 0-1.7-.1-.9-.1-2-.1-2.3-1.2-.3-.9.4-2.8 1.4-3.2 1.8-.8 3.6-.7 5.4-.2.9.3.9 1.1.6 2-1 0-1.9.3-2.8-.5-.2-.2-.9-.1-1.3-.1s-.7.3-.7.7c0 .4.4.4.7.5l2.4.2c1.1.1 1.6.7 1.5 1.8-.2 1.8-1.3 2.9-3.1 3-.9.1-1.9.1-2.8 0-1.6.1-2.1-.5-1.8-2.3zM162.7 68.6h2.3c.3.3 0 .6.2 1 .9-1.1 2-1.3 3.3-1.1.9.2 1.4.7 1.3 1.6-.1 2-.8 3.9-1.1 5.9-.1.3-.3.5-.6.5h-2.1c.3-1.6.7-3 .9-4.4.1-.6.5-1.3-.4-1.5-.9-.2-1.6.1-1.8 1-.3 1.1-.5 2.3-.8 3.5l-.3 1.4h-2.5c.5-2.7 1-5.3 1.6-7.9zM178.6 71.5h-2.4c0-.7-.4-1.1-1.1-1.1-.8 0-1.2.4-1.4 1.1l-.4 1.8c-.1.4-.2 1 .4 1.1.6.1 1.4.3 1.6-.2.7-1.6 1.9-.8 2.9-.9-.3 2.3-1.3 3.2-3.4 3.2-.8 0-1.6 0-2.5-.1-1.2-.2-1.8-.8-1.8-2.1 0-1.4.3-2.7.9-3.9.5-1.1 1.3-1.6 2.4-1.8.8-.2 1.7-.2 2.6-.1 2.1.2 2.6.8 2.2 3zM113.9 71.5h-2.3c0-.8-.5-1.1-1.2-1.1-.8 0-1.2.5-1.4 1.2-.1.4-.3.9-.3 1.3 0 .5-.5 1.3.4 1.6.8.2 1.6.2 1.9-.8 0-.1.1-.2.2-.3h2.3c-.2 2.1-1.2 3.1-3.2 3.2h-2.3c-1.5-.1-2.2-.9-2-2.4.1-1 .3-2 .6-3 .5-1.5 1.5-2.3 3.1-2.5.8-.1 1.5-.1 2.3 0 1.9 0 2.4.8 1.9 2.8zM73.5 57.3c-.2-.4-1-.1-.8-.8.1-.5 0-1.3.5-1.3 1.1-.1.9-1 1.1-1.6.8-.2 1.6-.1 2.5-.1l-.2 1.5c.9.3 1.9 0 2.8.2 0 .6-.1 1.2-.4 1.8h-2.9c-.3 1.2-.5 2.3-.7 3.3v.7c.5.2 1 .2 1.1-.2.3-1.5 1.4-1 2.3-1-.2 2.9-2.9 4.4-5.4 3.1-.8-.4-.8-1.1-.7-1.8.2-1.3.5-2.6.8-3.8zM120.1 57.3c-.2-.3-.6-.1-.9-.4.3-.6-.1-1.6 1.2-1.8.4-.1.3-.9.5-1.5h2.3c.3.5-.1 1 0 1.5.8.3 1.8 0 2.7.2.2.6-.1 1.2-.2 1.8h-.9c-2.1 0-2.1 0-2.5 2.1-.1.6-.4 1.2-.2 1.9.5.2.8.1 1.1-.3.7-1.1.8-1.1 2.3-.9-.2 3.4-2.7 3.6-5.2 3.1-.9-.2-1.1-.9-.9-1.7.2-1.4.4-2.8.7-4zM68.3 55.9c.3-.4.7-.7 1.2-.8 1.6-.5 2.5.3 2.3 1.9-.1.4-.2.9-.3 1.4-.7.2-1.5.1-2.2.1-.3-.5.4-1.3-.5-1.4-.9-.1-1.2.6-1.3 1.3-.3 1.1-.6 2.2-.7 3.4-.1 1.1-.6 1.5-1.7 1.3-.4-.1-.7.1-1.2-.2l1.5-7.2c.2-1 1.2-.4 1.8-.5.4-.1.9 0 .7.6-.1.1-.1.3.1.4.2 0 .3-.2.3-.3zM63.4 68.5c.9.4 2-.7 2.6.8.9-.8 2-1.3 3-.6 1.2.8.4 2.1.3 3.2-.8.2-1.5.1-2.2 0-.2-.5.5-1.3-.4-1.4-.8-.1-1.1.5-1.3 1.2-.3 1.5-.7 3.1-1 4.7h-2.6c.4-2.7 1-5.2 1.6-7.9zM144.3 65.1c-.8 3.6-1.5 7.1-2.2 10.5-.1.6-.3.9-1 .8h-1.8c.8-3.7 1.5-7.2 2.3-10.7.1-.4.3-.6.7-.6h2zM146.2 76.4h-2.6l2.4-11.2c.8-.2 1.6-.1 2.6-.1-.8 3.8-1.6 7.6-2.4 11.3zM152 68.6l-1.7 7.8h-2.6c.6-2.6 1.1-5.2 1.6-7.8h2.7zM152.3 67.1h-2.4c-.2-.7.1-1.2.3-1.9.8-.2 1.6-.1 2.4 0 .1.6-.2 1.2-.3 1.9zM68.3 55.9l-.2.2c-.2-.1-.1-.2-.1-.4.1.1.2.2.3.2z"/></g></svg>