<svg xmlns="http://www.w3.org/2000/svg" width="200" height="100" viewBox="0 0 200 100"><g fill="#fff"><path d="M144.4 49.8v13.8c-1.7 1-3.2.7-4.9.5v-28c2.6-1 4.5-.4 5.9 2.4 2 4.1 4.3 8 6.8 11.9 1.1-4.8.2-9.6.8-14.3 1.6-.6 3-.5 4.5-.1.9 1 .6 2.2.6 3.2v21.3c0 1.4.8 3.2-1.4 3.7s-3.6-.3-4.6-2.6c-2-4.1-4.4-8-6.7-12-.4.1-.7.2-1 .2zM91.9 36.6c-1.7 3.5-4.2 5.9-6.4 8.6-1.5 1.8-1.7 3.1-.3 5.2 2.9 4.3 5.4 8.8 8.1 13.3-5 1.5-5.4 1.4-8-2.7-1.7-2.7-3.5-5.4-5.3-8.3-4 3.3-1.1 7.8-2.6 11.4-1.5.5-3 .6-4.9-.3v-11c-3.2-.9-6.3-.1-9.3-.7-.7-1.5-.5-2.9 0-4.6h8.6c1.3-2.9.6-5.6.7-8.3.2-4.6.8-4.9 5.3-2.7v10.1c2.9-2.4 4.5-5.2 6.4-7.6 2.8-3.9 2.7-3.9 7.7-2.4zM186.3 55c-5.2-.4-5.2-.4-4.6-5.1 3.4-.7 6.8-.2 10.4-.3.7 3.8.2 7.3-.2 10.9-.1.7-.7 1-1.1 1.4-3.2 3.1-9.7 3.9-13.6 1.8-2.7-1.5-3.8-3.9-3.9-6.8-.1-4.6-.2-9.2 0-13.8.2-4.8 3-7.4 7.8-7.7 4.6-.3 9.1-.1 11.4 4.9-2.8 2.8-3.3 2.9-6.4 1-3.9-2.3-7.5-.4-7.6 3.9v11.2c0 1.6.8 3 2.3 3.5 1.6.5 3.2.3 4.6-.7 1.8-1 1.3-2.5.9-4.2zM94.4 49.7c0-2.2.2-4.5-.1-6.7-.3-2.4.8-4.1 2.4-5.5 3.6-3.1 7.9-2.8 12-1.5 3.9 1.2 4.9 4.6 4.9 8.4 0 3.5-.1 7 0 10.5.1 4.2-1.2 7.6-5.2 9.3-4 1.7-10.2.4-12.8-2.5-.9-.9-1.2-2-1.2-3.3.1-3 .1-5.8 0-8.7zm13.8.4v-6.3c-.1-2.7-1.7-3.6-4.2-3.6-2.8 0-4.2 1-4.3 3.5-.2 4.2-.1 8.5 0 12.7.1 2.6 1.7 3.6 4.2 3.7 2.5 0 4.1-.9 4.3-3.6.1-2.2 0-4.3 0-6.4zM134.7 59.3c.6 2 .6 3.3.1 4.8h-16.2v-28.1h16.1c1 1.3.3 2.7.5 4.3-3.8.7-7.5 0-11.2.5-.6 2-.4 3.9-.2 6 3 1.2 6.2-.1 9.2.8.7 1.4.5 2.7.2 4.2-3 .9-6.1.7-9.3.9-.3 2.2-.3 4.2 0 6.6h10.8zM7.3 59.6c1.1-1.4 2.7-1.6 3.9-2.6 1.6 1.5 2.8 3.4 5.4 3 1.6-.2 2.9-.8 3.4-2.4.5-1.7-.1-2.9-1.6-3.8-1.8-.9-3.6-1.8-5.3-2.8-4.3-2.4-5.7-5.2-5-9.4.6-3.3 3.1-5.7 6.6-6.2 5.1-.7 7.8.6 10.1 5.1-.8 1.6-2.5 1.7-3.8 2.3-1.2-.3-1.4-1.3-2.1-1.8-1.9-1.3-4.1-1.1-5.3.7-1.1 1.7-.5 3.3 1.7 4.5 2.6 1.5 5.5 2.2 7.6 4.5 2.5 2.7 2.8 5.5 1.7 8.9-1.1 3.6-3.7 4.8-7 5.1-4.2.3-8.1-.3-10.3-5.1zM63.2 57.2c1.2.5 2.6.9 3.6 2.5-1.1 3.1-3.3 4.7-6.6 4.9-1.5.1-3 .1-4.5 0-4.1-.2-7-2.8-7.2-6.9-.2-5.1-.2-10.2 0-15.3.1-2.5 1.3-4.5 3.5-5.8 4-2.4 10.5-1.6 13.9 1.4 1.4 1.2 2 2.5.7 3.7-1.2 1.1-3 2-4.6.2-.7-.8-1.3-1.5-2.4-1.7-3.5-.7-6.1 1-5.8 4.2.3 3.5.1 7 0 10.5 0 2.1 0 4.2 2.5 4.9 2.1.6 4.2.5 5.7-1.6.2-.5.5-.9 1.2-1zM45.8 36.1c.5 1.5.5 2.7.1 4.1-3.6.9-7.3-.1-11.1.6-.7 2-.2 4-.4 6 3.1 1.2 6.3 0 9.3.8.9 4.7.7 5-3.6 5h-5.6v11.4c-2.2.4-4 .8-5.7-.3 1-9.1 0-18.2.6-27.6h16.4zM168.3 63.9c-1.8.7-3.1.4-4.8.4v-28.1c2.4-.4 2.4-.4 4.8.2v27.5z"/></g></svg>