<?xml version="1.0" encoding="utf-8"?>
<!-- Generator: Adobe Illustrator 18.1.1, SVG Export Plug-In . SVG Version: 6.00 Build 0)  -->
<!DOCTYPE svg PUBLIC "-//W3C//DTD SVG 1.1//EN" "http://www.w3.org/Graphics/SVG/1.1/DTD/svg11.dtd">
<svg version="1.1" id="Layer_1" xmlns="http://www.w3.org/2000/svg" xmlns:xlink="http://www.w3.org/1999/xlink" x="0px" y="0px"
	 width="46.9px" height="49px" viewBox="0 0 46.9 49" enable-background="new 0 0 46.9 49" xml:space="preserve">
<g>
	<g>
		<path fill="#474A56" d="M23.4,45.9C11.6,45.9,2,36.3,2,24.5S11.6,3.1,23.4,3.1s21.4,9.6,21.4,21.4S35.3,45.9,23.4,45.9z M23.4,6.6
			c-9.9,0-17.9,8-17.9,17.9s8,17.9,17.9,17.9c9.9,0,17.9-8,17.9-17.9S33.3,6.6,23.4,6.6z"/>
	</g>
	<path fill="#BD1D1D" d="M37.1,15.6c-0.1-0.2-0.3-0.3-0.5-0.3L29.8,15c-0.2,0-0.4,0.1-0.5,0.3c-0.1,0.2-0.1,0.4,0,0.6l1.4,2.2
		l-0.9,0.6c0,0,0,0,0,0l-15.1,9.9l-1.4-2.2c-0.1-0.2-0.3-0.3-0.6-0.3c-0.1,0-0.2,0-0.3,0.1c-0.1,0.1-0.2,0.2-0.2,0.3l-2.4,6.4
		c-0.1,0.2,0,0.4,0.1,0.5c0.1,0.2,0.3,0.3,0.5,0.3l6.8,0.3c0.2,0,0.4-0.1,0.5-0.3c0.1-0.2,0.1-0.4,0-0.6l-1.4-2.2L31.3,21
		c0,0,0,0,0,0l0.9-0.6l1.4,2.2c0.1,0.2,0.3,0.3,0.6,0.3c0.1,0,0.2,0,0.3-0.1c0.1-0.1,0.2-0.2,0.2-0.3l2.4-6.4
		C37.2,16,37.2,15.8,37.1,15.6z"/>
</g>
</svg>
