<?xml version="1.0" encoding="utf-8"?>
<!-- Generator: Adobe Illustrator 18.1.1, SVG Export Plug-In . SVG Version: 6.00 Build 0)  -->
<!DOCTYPE svg PUBLIC "-//W3C//DTD SVG 1.1//EN" "http://www.w3.org/Graphics/SVG/1.1/DTD/svg11.dtd">
<svg version="1.1" id="Layer_1" xmlns="http://www.w3.org/2000/svg" xmlns:xlink="http://www.w3.org/1999/xlink" x="0px" y="0px"
	 width="46.9px" height="49px" viewBox="0 0 46.9 49" enable-background="new 0 0 46.9 49" xml:space="preserve">
<g>
	<path fill="#BD1D1D" d="M24.5,44.9 M28.8,14.3c6.4-4.5,13.7-4.9,13.8-4.9c0.5,0,0.9-0.5,0.9-1c0-0.5-0.5-1-1-0.9
		C42,7.4,33.1,7.9,26,14c4.7-7.1,14.6-9.1,14.7-9.1c0.5-0.1,0.8-0.6,0.8-1.1c-0.1-0.5-0.6-0.9-1.1-0.8C39.8,3.1,28,5.5,23.4,14.5
		C18.9,5.5,7.1,3.1,6.5,3C6,2.9,5.5,3.3,5.4,3.8c-0.1,0.5,0.2,1,0.8,1.1c0.1,0,10.1,2,14.7,9.1C13.8,7.9,4.9,7.5,4.4,7.4
		c-0.5,0-1,0.4-1,0.9c0,0.5,0.4,1,0.9,1c0.1,0,7.3,0.4,13.7,4.9l5.3,2.2L28.8,14.3z"/>
	<path fill="#474A56" d="M43.9,12.6c-0.4-0.1-6.3-0.8-15.1,2.5c0,0,0,0,0,0c-2.4,0.9-4.9,1.9-5.3,2.1L18,15c0,0,0.1,0,0.1,0.1
		c-5.9-2.2-10.5-2.6-13-2.6c-1.3,0-2,0.1-2.1,0.1c-0.9,0.1-1.5,0.9-1.4,1.8L3.7,39c0.1,0.9,0.8,1.5,1.6,1.6
		c10.5,0.4,17,5.1,17.1,5.2c0.3,0.2,0.7,0.3,1,0.3c0.3,0,0.5-0.1,0.8-0.2c0.1,0,0.2-0.1,0.3-0.2c0,0,0,0,0,0c0.1,0,6.5-4.8,17.1-5.2
		c0.9,0,1.6-0.7,1.6-1.6l2.2-24.5C45.4,13.5,44.8,12.8,43.9,12.6z M21.7,41.3C19,39.9,13.9,37.7,7,37.2L5.1,15.9c0,0,0,0,0,0
		c2.9,0,8.9,0.6,16.6,4.4V41.3z M39.9,37.2c-6.9,0.5-12,2.7-14.8,4.1v-21c7.8-3.9,13.8-4.4,16.7-4.4L39.9,37.2z"/>
</g>
</svg>
