<?xml version="1.0" encoding="utf-8"?>
<!-- Generator: Adobe Illustrator 18.1.1, SVG Export Plug-In . SVG Version: 6.00 Build 0)  -->
<!DOCTYPE svg PUBLIC "-//W3C//DTD SVG 1.1//EN" "http://www.w3.org/Graphics/SVG/1.1/DTD/svg11.dtd">
<svg version="1.1" id="Layer_1" xmlns="http://www.w3.org/2000/svg" xmlns:xlink="http://www.w3.org/1999/xlink" x="0px" y="0px"
	 width="46.9px" height="49px" viewBox="0 0 46.9 49" enable-background="new 0 0 46.9 49" xml:space="preserve">
<g>
	<g>
		<path fill="#474A56" d="M17.1,21.3c0.3,0,0.8-0.6,1.2-0.7c0.7-0.2,1.3,0.2,1.8,0.7c0.3,0.3,0.7,0.9,0.6,1.3c0,0-0.5,0.8-0.4,0.8
			c1.2-1.4,0.8,1,1,1.2c-0.1,0-0.3-1.1-0.4-1c-0.3,0.3,0.2,1,0.2,1c0,0.2,0,0.3-0.3,0.4c-0.4,0.7-1.9,1.2-2.5,0.6
			c-0.5-0.4-0.3-1.7-1.2-1.1c-0.4,0.3-0.3,0.8-0.9,0.8c-0.5,0-1.1-0.4-1.3-0.8c-0.7-1.2,0.6-0.5,0.8-1.3c-0.2,0-0.3-0.1-0.4-0.2
			c0-0.2,0.8-0.4,1-0.6C16.6,21.8,16.5,21.2,17.1,21.3c-0.1,0-0.2,0-0.3,0C16.9,21.2,17.1,21.3,17.1,21.3c-0.1,0-0.2,0-0.3,0
			C16.9,21.2,17,21.3,17.1,21.3C17.3,21.3,16.2,21.2,17.1,21.3z"/>
		<path fill="#474A56" d="M20,14.9c-0.5,0.2-0.8-0.7,0.1-0.5c0.3,0.1,0.9,0.7,0.8,1c-0.2,0.4-1.7,0.3-1.7,0.3c0-0.3,0.6-0.2,0.7-0.3
			c-0.1,0.1-0.2,0-0.3-0.1c0.1-0.2,0.5-0.2,0.5-0.4c-0.3-0.1-0.2-0.1-0.4,0C19.9,14.9,20,14.9,20,14.9C19.8,15,20.1,14.9,20,14.9z"
			/>
		<path fill="#474A56" d="M20.2,17.2c-0.1-0.3,0.6-1.1,0.5-0.2c0,0.2-0.4,1-0.7,1C19.4,18,20.3,17.4,20.2,17.2z"/>
		<path fill="#474A56" d="M38.6,36.8c0.9,0.3-0.3,0.6-0.2,0C38.3,36.7,38.6,36.9,38.6,36.8z"/>
		<path fill="#474A56" d="M27.1,6.1c-0.3-0.2,0.2-0.6-0.2-0.8c-0.4-0.3-0.5,0.2-0.8,0.2c-0.3,0.1-0.7,0.1-1,0.2
			c-0.4,0.1-0.9,0.5-1.3,0.5c0-0.1,0.1-0.3,0.1-0.5c-0.1-0.3-0.5,0.4-0.7,0.4c-0.2-0.1,0-0.8-0.5-0.6c-0.5,0.1-0.2,0.8-0.3,1
			c-0.1,0.3-0.6,0.4-0.6,0.5C21.8,7.4,22,7.4,22,7.7c-0.1,0.1-0.2,0.2-0.4,0.1c0.1,0,0.8,1,0.8,1.1c-0.2,0-1.1-0.4-1.3-0.3
			c0,0,0.1,0.5,0,0.5c0,0-0.2-0.4-0.3-0.4c-0.2,0.2-0.2,0.3-0.1,0.5c0.3,0.1,0.3,0.3,0.2,0.5c0,0,0.4,0.6,0.4,0.5
			c0,0.2-0.6-0.1-0.8,0.2c-0.3,0.6,0.5,0.3,0.6,0.5c0,0,0.3-0.3,0.3-0.2c0,0-0.8,0.4-0.5,0.5c0.4,0.1,0.5-0.4,0.5,0.3
			c-1.1,0.3,0.1,0.1,0.1,0.5c-0.1,0.3-0.7-0.2-0.8,0.1c-0.1,0.3,0.5,0.2,0.5,0.5c0-0.2-0.7,0-0.7,0c-0.3,0.4,0.4,0.3,0.3,0.6
			c0-0.2-0.4,0.4-0.4,0.4c-0.1,0.1-1-0.1-0.9,0.2c0.1,0.2,0.9,0.1,0.8,0.3c0,0-0.4,0-0.4,0.1c0.2,0.3,0.5,0.4,0.8,0.4
			c0.4,0,1.1-0.6,1.1-0.9c-0.1,0.3-0.6,0.6-0.5,0.9c0.2,0.6,0.4,0,0.8,0c0,0.1-1.7,1.2-1,1.2c0,0.1-0.4,0.6-0.1,0.3
			c-0.2,0-0.7,3.7-0.4,3.9c0.6,0.3,0.8-1.7,0.9-2c0-0.4-0.1-0.9,0-1.3c0.2-0.4,0.9-0.5,1-0.9c-0.1,0.5-1.8,1.5-0.7,1.9
			c0,0,0-0.6,0.1-0.5c0.2,0.1-0.1,1,0.3,0.9c0.3-0.1,0.1-0.9-0.1-1c0,0,0.3,0.4,0.3,0.4c0.3-0.3-0.1-0.9,0.3-1.3
			c0,0.1,0,0.3,0.1,0.4c0-0.1,0.1-0.6,0.3-0.5c-0.3-0.2,0.1,1.6,0.5,1.2c-0.4,0.4-0.5-0.3-0.8,0.3c-0.3,0.5,0.6,1.1,0.6,1.6
			c0,0.2-1.1,2.7-0.8,2.6c-0.1,0-0.7-0.9-0.5,0c0.1,0.3,0.9,0.9,0.8,1.2c0.2-0.4-0.5-0.9,0.2-0.9c0.3,0,0.6,0.8,1,0.8
			c0.8-0.1-0.8-1.5,0.8-0.4c-0.2-0.1,0.6-0.1,0.5-0.1c0.4-0.2,0.7-0.6,1-0.8c0.3-0.1,0.9,0.2,1.1,0c-0.5,0.5-1.2,0.8-1.3,1.5
			c-0.2,0.8,0.3,1.5,0.9,2c0-0.1,0.1-0.1,0.1-0.2c0.3,0.4-0.5,0.6,0.2,0.6c0.2,0,0.6-0.8,0.8-0.2c0.1,0.3-0.3,0.8-0.4,1.1
			c-0.2,0.6-0.3,1.5-0.3,2.1c0,0.1-0.1,0.2-0.1,0.3c0.1,0.1,0.1,0.3,0.2,0.4c0.1-0.5-2.8-0.2-2.7,0.1c0.1-0.1,0.1-0.2,0.1-0.3
			c-1.8-1.4-1.5,0.9-0.5,0.6c0.1,0.3-1.5,1.6-1.3,1.7c0.2-0.2,0.5,0,0.7-0.1c0.1-0.2,0.7-0.9,1.1-0.6c0.1,0.1-0.2,0.3-0.2,0.5
			c0,0.2,0.2,0.5,0.3,0.6c0.1,0.4-0.4,0.3,0.2,0.6c-0.1,0-1.2,1.5-1.3,1.6c-0.7,0.5-2,0.4-2.4,1.4c0.3-0.7,0.6,0.8,0.4,0.5
			c0.3,0.5,0.4-0.1,0.8,0.2c-0.1-0.1-0.6,0.1-0.6,0.2c0,0.4,1.3-0.2,1.5-0.2c0.2,0,1.3,0.3,1.3,0.3c-0.1,0.1-0.7,0-0.5,0.4
			c0.2,0.3,0.4,0.1,0.6,0c0.4,0,0.3-0.3,0.7-0.2c0.3,0.1,0.4,0.6,0.6,0.8c0.7,0.4,1.4-0.3,1.9-0.7c0.2-0.1,1.4-0.6,1.3-0.9
			c0.2,0.5-1.9,2.5-2.3,2.6c-0.7,0.2-1.5-0.4-2.2-0.1c-0.5,0.2-1.2,1-1.5,1.4c-0.6,0.8-0.9,1.8-1.7,2.5c-0.3,0.3-1.1,0.5-1.3,0.8
			c-0.5,0.7,0.3,0.3,0.7,0.4c0.4,0.1,0.6,0.5,1,0.2c0.1-0.1,0.2-0.6,0.1-0.6c0.2,0.3,0.9-0.6,1.1-0.7c0.3-0.1,1.4,0.4,1.3-0.2
			c0,0,0.9,0.7,1,0.7c0.6,0.1,0.6-0.1,0.8-0.6c0.6-1.3,1.2-2.1,2.6-1.2c0.8,0.5,0.3,0,0.8-0.1c0.4-0.1,0.6,0.1,1-0.2
			c0,0-0.2-0.2,0-0.3c0.3-0.2,0.8-0.1,1.1-0.1c0.2,0,0.5-0.1,0.7-0.2c0.1-0.1-0.2-0.3-0.1-0.4c-0.1,0.1,1.3,0.5,1.5,0.5
			c0.5,0,1-0.3,1.5-0.3c0.5-0.1,1.1,0.1,1.6,0.1c1-0.1,2.4-1,2.9-1.9c0.6-0.9,0-0.9-0.8-1c-0.2,0-1.7-0.4-1.8-0.3
			c0.3-0.4,1.1-0.1,1.2-0.6c0.1-0.2-0.3-0.8-0.5-0.6c0.3-0.3,0.7-0.2,1.1-0.4c0.4-0.2,0.2-0.3,0.4-0.6c0.6-0.9,1.2-1.9,1-3
			c-0.2-1.1-1.2-1.7-2.3-1.7c-1,0-1.5,1.1-2.4,0.6c0,0,0.6-0.7,0.6-0.7c0.3-0.7,0-1.3-0.4-1.9c-0.3-0.3-0.7-0.9-1.2-0.9
			c-0.2,0-1.1,0.3-1.1,0.1c0-0.2,2,0.3,2.2,0.4c-0.3-0.1-0.8-1-0.9-1.3c-0.1-0.3,0.2-0.6,0.1-0.9c-0.1-0.3-0.3-0.4-0.5-0.6
			c-0.3-0.4-0.6-0.9-1-1.2c-0.3-0.2-0.7-0.2-1-0.4c-0.7-0.4-1-1.4-1.2-2.1c-0.5-1.7-0.8-3.4-2.8-3.9c-0.7-0.2-1.3,0.2-2,0.1
			c-0.1,0-1.4-0.3-1.2-0.5c0,0,0.6,0.3,0.7,0.3c0.5,0,0.7-0.3,1.1-0.5c0.2-0.1,0.8-0.1,0.9-0.3c0.3-0.4-0.3-0.8-0.5-1.1
			c0.2,0.2,1.2-1.3,1.3-1.5c0.3-0.5,0.4-1,0.5-1.6c0.1-0.5,0.6-1.1,0.5-1.7c-0.2-1-1.6-0.9-2.4-0.8c-0.6,0-1.3,0-1.9,0.3
			c-0.4,0.2-0.9,0.8-1.4,0.7c0.6,0.1,0.5-1.6,1-1.6c-0.2,0-0.9,0.5-1.1,0.1c0.1,0.4,0.7-0.4,0.5-0.3C25.3,8.3,27.6,6.6,27.1,6.1
			c0,0,0,0,0.1,0.1C27.2,6.2,27.1,6.1,27.1,6.1C27.1,6.1,27.4,6.3,27.1,6.1C26.8,5.9,27.5,6.4,27.1,6.1z"/>
	</g>
	<g>
		<path fill="#BD1D1D" d="M13.4,30.7h0.9v1.6h-1.1l-0.4,3h0.9v1.6h-1.1l-0.3,2.2h-2l0.3-2.2H9.1l-0.3,2.2h-2L7,36.9H6.2v-1.6h1.1
			l0.4-3H6.8v-1.6h1.1l0.3-2h2l-0.3,2h1.5l0.3-2h2L13.4,30.7z M11.2,32.3H9.7l-0.4,3h1.6L11.2,32.3z"/>
		<path fill="#BD1D1D" d="M19.7,39.1h-2.3l1.1-7.9l-2.4,1.4l-0.8-1.8l3.8-2.1h2.1L19.7,39.1z"/>
	</g>
</g>
</svg>
