<?xml version="1.0" encoding="utf-8"?>
<!-- Generator: Adobe Illustrator 18.1.1, SVG Export Plug-In . SVG Version: 6.00 Build 0)  -->
<!DOCTYPE svg PUBLIC "-//W3C//DTD SVG 1.1//EN" "http://www.w3.org/Graphics/SVG/1.1/DTD/svg11.dtd">
<svg version="1.1" id="Layer_1" xmlns="http://www.w3.org/2000/svg" xmlns:xlink="http://www.w3.org/1999/xlink" x="0px" y="0px"
	 width="46.9px" height="49px" viewBox="0 0 46.9 49" enable-background="new 0 0 46.9 49" xml:space="preserve">
<g>
	<path fill="#BD1D1D" d="M25.7,11.5c-1-0.2-1.9,0.4-2.1,1.4c-0.2,1,0.4,1.9,1.4,2.1c4.6,1,7.6,5.5,6.6,10.1C31.4,26,32,27,33,27.2
		c1,0.2,1.9-0.4,2.1-1.4C36.4,19.3,32.2,12.9,25.7,11.5z"/>
	<path fill="#BD1D1D" d="M27.6,2.7c-0.9-0.2-1.9,0.4-2.1,1.4c-0.2,1,0.4,1.9,1.4,2.1c9.5,2,15.5,11.3,13.6,20.7
		c-0.2,1,0.4,1.9,1.4,2.1c1,0.2,1.9-0.4,2.1-1.4C46.2,16.3,38.9,5.1,27.6,2.7z"/>
	<path fill="#474A56" d="M27.3,30.6c-0.3-0.4-0.8-0.5-1.2-0.3l-0.3,0.2c-0.7,0.5-2.8,1.8-3,1.9c0,0-0.1,0.1-0.2,0.1
		c-1.4,0.4-5.1-3.3-7.3-7.9c-1.3-2.8-1.3-4.5-0.8-4.9l3.2-2.1c0.2-0.1,0.3-0.3,0.4-0.6c0.1-0.2,0-0.5-0.1-0.7l-7-10.8
		c-0.1-0.2-0.3-0.3-0.6-0.4c-0.2,0-0.5,0-0.7,0.1L9.4,5.6C8.4,6.2,6.6,7.3,6.6,7.4L6.5,7.5c-4.1,2.8-7.4,8,3.3,24.4
		c7.1,11,13.1,15.6,18.3,14.2l0,0c1.1-0.3,2-0.8,2.6-1.2l0.2-0.1c0.1-0.1,3.3-2.1,3.3-2.2c0.4-0.3,0.5-0.8,0.2-1.2L27.3,30.6z"/>
</g>
</svg>
