<?xml version="1.0" encoding="utf-8"?>
<!-- Generator: Adobe Illustrator 18.1.1, SVG Export Plug-In . SVG Version: 6.00 Build 0)  -->
<!DOCTYPE svg PUBLIC "-//W3C//DTD SVG 1.1//EN" "http://www.w3.org/Graphics/SVG/1.1/DTD/svg11.dtd">
<svg version="1.1" id="Layer_1" xmlns="http://www.w3.org/2000/svg" xmlns:xlink="http://www.w3.org/1999/xlink" x="0px" y="0px"
	 width="46.9px" height="49px" viewBox="0 0 46.9 49" enable-background="new 0 0 46.9 49" xml:space="preserve">
<g>
	<path fill="#BD1D1D" d="M10,14.8c0,1.5-1.2,2.7-2.8,2.7c-1.7,0-2.8-1.2-2.8-2.7c0-1.5,1.1-2.7,2.8-2.7C8.8,12.1,10,13.3,10,14.8z"
		/>
	<rect x="4.8" y="20.5" fill="#474A56" width="4.7" height="15.9"/>
	<path fill="#474A56" d="M24.8,21.9L23,24.6c-1.2-0.8-2.5-1.3-3.8-1.3c-1.4,0-2.1,0.5-2.1,1.2c0,0.8,0.4,1.2,3.3,2
		c3.1,0.9,4.9,2.2,4.9,5.1c0,3.3-3.1,5.2-7.1,5.2c-2.8,0-5.1-1-6.7-2.4l2.3-2.6c1.2,1,2.6,1.6,4.2,1.6c1.5,0,2.3-0.5,2.3-1.5
		c0-1.1-0.5-1.4-3.4-2.2c-3.2-0.9-4.7-2.5-4.7-5c0-2.7,2.5-4.9,6.5-4.9C21.2,20,23.3,20.7,24.8,21.9z"/>
	<path fill="#474A56" d="M42.5,28.5c0,5.1-2.9,8.5-7.8,8.5c-4.8,0-7.8-3.1-7.8-8.5c0-5.1,2.9-8.5,7.8-8.5
		C39.6,20,42.5,23.1,42.5,28.5z M31.8,28.4c0,3.5,1,5,2.9,5s2.9-1.5,2.9-5c0-3.5-1-5-2.9-5S31.8,25,31.8,28.4z"/>
</g>
</svg>
